<svg width="268" height="30" viewBox="0 0 268 30" fill="none" xmlns="http://www.w3.org/2000/svg">
<path d="M11.32 18.2C11.32 19.2933 11.68 20.1333 12.4 20.72C13.1467 21.3067 14.1467 21.6 15.4 21.6C16.52 21.6 17.3467 21.4133 17.88 21.04C18.4133 20.6667 18.8667 20.1067 19.24 19.36C19.5867 18.6667 20.0533 18.32 20.64 18.32H29.28C29.52 18.32 29.72 18.4133 29.88 18.6C30.0667 18.76 30.16 18.96 30.16 19.2C30.16 20.8267 29.6133 22.4267 28.52 24C27.4267 25.5467 25.76 26.84 23.52 27.88C21.3067 28.8933 18.6 29.4 15.4 29.4C12.5467 29.4 10 28.9733 7.76 28.12C5.54667 27.24 3.78667 25.9067 2.48 24.12C1.17333 22.3067 0.52 20.0533 0.52 17.36V12.64C0.52 9.94667 1.17333 7.70667 2.48 5.92C3.78667 4.10667 5.54667 2.77333 7.76 1.92C10 1.04 12.5467 0.599998 15.4 0.599998C18.6 0.599998 21.3067 1.12 23.52 2.16C25.76 3.17333 27.4267 4.46667 28.52 6.04C29.6133 7.58667 30.16 9.17333 30.16 10.8C30.16 11.04 30.0667 11.2533 29.88 11.44C29.72 11.6 29.52 11.68 29.28 11.68H20.64C20.0533 11.68 19.5867 11.3333 19.24 10.64C18.8667 9.89333 18.4133 9.33333 17.88 8.96C17.3467 8.58666 16.52 8.4 15.4 8.4C14.1467 8.4 13.1467 8.69333 12.4 9.28C11.68 9.86667 11.32 10.7067 11.32 11.8V18.2ZM63.8644 17.44C63.8644 21.52 62.5044 24.5333 59.7844 26.48C57.091 28.4267 53.491 29.4 48.9844 29.4C44.4777 29.4 40.8644 28.4267 38.1444 26.48C35.451 24.5333 34.1044 21.4933 34.1044 17.36V12.64C34.1044 9.92 34.7444 7.66667 36.0244 5.88C37.331 4.06667 39.1044 2.73333 41.3444 1.88C43.5844 1.02667 46.131 0.599998 48.9844 0.599998C51.8377 0.599998 54.371 1.02667 56.5844 1.88C58.8244 2.73333 60.5977 4.05333 61.9044 5.84C63.211 7.62667 63.8644 9.86667 63.8644 12.56V17.44ZM44.9044 18.2C44.9044 19.2933 45.2644 20.1333 45.9844 20.72C46.731 21.3067 47.731 21.6 48.9844 21.6C50.2377 21.6 51.2244 21.3067 51.9444 20.72C52.691 20.1067 53.0644 19.2533 53.0644 18.16V11.84C53.0644 10.7467 52.691 9.90667 51.9444 9.32C51.2244 8.70667 50.2377 8.4 48.9844 8.4C47.731 8.4 46.731 8.69333 45.9844 9.28C45.2644 9.86667 44.9044 10.7067 44.9044 11.8V18.2ZM88.2088 2.08C88.6088 1.36 89.1821 0.999998 89.9288 0.999998H97.2488C97.5421 0.999998 97.7954 1.10666 98.0088 1.32C98.2221 1.53333 98.3288 1.78667 98.3288 2.08V27.92C98.3288 28.2133 98.2221 28.4667 98.0088 28.68C97.7954 28.8933 97.5421 29 97.2488 29H90.0088C89.7154 29 89.4621 28.8933 89.2488 28.68C89.0354 28.4667 88.9288 28.2133 88.9288 27.92V15.52L86.0088 21.28C85.9288 21.4667 85.7421 21.68 85.4488 21.92C85.1554 22.16 84.7821 22.28 84.3288 22.28H81.6088C81.1554 22.28 80.7821 22.16 80.4888 21.92C80.1954 21.68 80.0088 21.4667 79.9288 21.28L77.0088 15.52V27.92C77.0088 28.2133 76.9021 28.4667 76.6888 28.68C76.4754 28.8933 76.2221 29 75.9288 29H68.6888C68.3954 29 68.1421 28.8933 67.9288 28.68C67.7154 28.4667 67.6088 28.2133 67.6088 27.92V2.08C67.6088 1.78667 67.7154 1.53333 67.9288 1.32C68.1421 1.10666 68.3954 0.999998 68.6888 0.999998H76.0088C76.7554 0.999998 77.3288 1.36 77.7287 2.08L82.9688 11.68L88.2088 2.08ZM130.473 0.999998C130.766 0.999998 131.02 1.10666 131.233 1.32C131.446 1.53333 131.553 1.78667 131.553 2.08V8.16C131.553 8.45333 131.446 8.70666 131.233 8.92C131.02 9.13333 130.766 9.24 130.473 9.24H114.753V11.8H127.873C128.166 11.8 128.42 11.9067 128.633 12.12C128.846 12.3333 128.953 12.5867 128.953 12.88V18.92C128.953 19.2133 128.846 19.4667 128.633 19.68C128.42 19.8933 128.166 20 127.873 20H114.753V27.92C114.753 28.2133 114.646 28.4667 114.433 28.68C114.22 28.8933 113.966 29 113.673 29H105.033C104.74 29 104.486 28.8933 104.273 28.68C104.06 28.4667 103.953 28.2133 103.953 27.92V2.08C103.953 1.78667 104.06 1.53333 104.273 1.32C104.486 1.10666 104.74 0.999998 105.033 0.999998H130.473Z" fill="#315B51"/>
<path d="M164.258 0.999998C164.551 0.999998 164.804 1.10666 165.018 1.32C165.231 1.53333 165.338 1.78667 165.338 2.08V27.92C165.338 28.2133 165.231 28.4667 165.018 28.68C164.804 28.8933 164.551 29 164.258 29H156.018C155.724 29 155.471 28.8933 155.258 28.68C155.044 28.4667 154.938 28.2133 154.938 27.92V19.4H146.938V27.92C146.938 28.2133 146.831 28.4667 146.618 28.68C146.404 28.8933 146.151 29 145.858 29H137.618C137.324 29 137.071 28.9067 136.858 28.72C136.644 28.5067 136.538 28.24 136.538 27.92V2.08C136.538 1.78667 136.644 1.53333 136.858 1.32C137.071 1.10666 137.324 0.999998 137.618 0.999998H145.858C146.151 0.999998 146.404 1.10666 146.618 1.32C146.831 1.53333 146.938 1.78667 146.938 2.08V10.28H154.938V2.08C154.938 1.78667 155.044 1.53333 155.258 1.32C155.471 1.10666 155.724 0.999998 156.018 0.999998H164.258ZM199.802 17.44C199.802 21.52 198.442 24.5333 195.722 26.48C193.029 28.4267 189.429 29.4 184.922 29.4C180.415 29.4 176.802 28.4267 174.082 26.48C171.389 24.5333 170.042 21.4933 170.042 17.36V12.64C170.042 9.92 170.682 7.66667 171.962 5.88C173.269 4.06667 175.042 2.73333 177.282 1.88C179.522 1.02667 182.069 0.599998 184.922 0.599998C187.775 0.599998 190.309 1.02667 192.522 1.88C194.762 2.73333 196.535 4.05333 197.842 5.84C199.149 7.62667 199.802 9.86667 199.802 12.56V17.44ZM180.842 18.2C180.842 19.2933 181.202 20.1333 181.922 20.72C182.669 21.3067 183.669 21.6 184.922 21.6C186.175 21.6 187.162 21.3067 187.882 20.72C188.629 20.1067 189.002 19.2533 189.002 18.16V11.84C189.002 10.7467 188.629 9.90667 187.882 9.32C187.162 8.70667 186.175 8.4 184.922 8.4C183.669 8.4 182.669 8.69333 181.922 9.28C181.202 9.86667 180.842 10.7067 180.842 11.8V18.2ZM252.771 0.999998C257.277 0.999998 260.877 1.97333 263.571 3.92C266.291 5.86667 267.651 8.88 267.651 12.96V17.04C267.651 21.2 266.304 24.24 263.611 26.16C260.944 28.0533 257.331 29 252.771 29H240.011C239.717 29 239.464 28.8933 239.251 28.68C239.037 28.4667 238.931 28.2133 238.931 27.92V2.08C238.931 1.78667 239.037 1.53333 239.251 1.32C239.464 1.10666 239.717 0.999998 240.011 0.999998H252.771ZM252.971 21.2C254.224 21.2 255.211 20.9067 255.931 20.32C256.677 19.7067 257.051 18.8533 257.051 17.76V12.24C257.051 11.1467 256.677 10.3067 255.931 9.72C255.211 9.10667 254.224 8.8 252.971 8.8H249.331V21.2H252.971Z" fill="#B04623"/>
<path d="M233.786 17.44C233.786 21.52 232.426 24.5333 229.706 26.48C227.013 28.4267 223.413 29.4 218.906 29.4C214.4 29.4 210.786 28.4267 208.066 26.48C205.373 24.5333 204.026 21.4933 204.026 17.36V12.64C204.026 9.92 204.666 7.66667 205.946 5.88C207.253 4.06667 209.026 2.73333 211.266 1.88C213.506 1.02667 216.053 0.599998 218.906 0.599998C221.76 0.599998 224.293 1.02667 226.506 1.88C228.746 2.73333 230.52 4.05333 231.826 5.84C233.133 7.62667 233.786 9.86667 233.786 12.56V17.44ZM214.826 18.2C214.826 19.2933 215.186 20.1333 215.906 20.72C216.653 21.3067 217.653 21.6 218.906 21.6C220.16 21.6 221.146 21.3067 221.866 20.72C222.613 20.1067 222.986 19.2533 222.986 18.16V11.84C222.986 10.7467 222.613 9.90667 221.866 9.32C221.146 8.70667 220.16 8.4 218.906 8.4C217.653 8.4 216.653 8.69333 215.906 9.28C215.186 9.86667 214.826 10.7067 214.826 11.8V18.2Z" fill="#B04623"/>
</svg>
